<?xml version="1.0" standalone="no"?>
<!DOCTYPE svg PUBLIC "-//W3C//DTD SVG 20010904//EN"
 "http://www.w3.org/TR/2001/REC-SVG-20010904/DTD/svg10.dtd">
<svg version="1.0" xmlns="http://www.w3.org/2000/svg"
 width="2624.000000pt" height="2624.000000pt" viewBox="0 0 2624.000000 2624.000000"
 preserveAspectRatio="xMidYMid meet">
<metadata>
Created by potrace 1.14, written by Peter Selinger 2001-2017
</metadata>
<g transform="translate(0.000000,2624.000000) scale(0.100000,-0.100000)"
fill="#000000" stroke="none">
<path d="M114 15741 c-2 -2 -4 -1133 -4 -2513 l0 -2509 53 2 c30 1 58 0 63 -4
6 -3 16 -2 23 3 8 4 27 4 42 0 16 -5 29 -5 29 0 0 5 13 5 30 0 18 -5 32 -5 36
1 3 5 10 7 15 3 6 -3 36 -5 67 -5 56 1 79 1 105 1 6 -1 40 0 73 1 34 1 66 -1
72 -5 6 -3 13 -2 17 3 3 6 11 8 18 5 20 -7 127 -10 127 -3 0 4 15 4 33 0 17
-3 43 -5 57 -4 31 2 60 3 80 3 8 -1 40 0 71 1 30 1 60 0 65 -4 6 -3 16 -2 23
3 8 4 27 4 42 0 16 -5 29 -5 29 0 0 5 13 5 30 0 18 -5 32 -5 36 1 3 5 10 7 15
3 6 -3 36 -5 67 -5 56 1 79 1 105 1 6 -1 40 0 73 1 34 1 66 -1 72 -5 6 -3 13
-2 17 3 3 6 11 8 18 5 20 -7 127 -10 127 -3 0 4 15 4 33 0 17 -3 43 -5 57 -4
31 2 60 3 80 3 8 -1 40 0 71 1 30 1 60 0 65 -4 6 -3 16 -2 23 3 8 4 27 4 42 0
16 -5 29 -5 29 0 0 5 13 5 30 0 18 -5 32 -5 36 1 3 5 10 7 15 3 6 -3 36 -5 67
-5 56 1 79 1 105 1 6 -1 40 0 73 1 34 1 66 -1 72 -5 6 -3 13 -2 17 3 3 6 11 8
18 5 20 -7 127 -10 127 -3 0 4 15 4 33 0 17 -3 43 -5 57 -4 31 2 60 3 80 3 8
-1 40 0 71 1 30 1 60 0 65 -4 6 -3 16 -2 23 3 8 4 27 4 42 0 16 -5 29 -5 29 0
0 5 13 5 30 0 18 -5 32 -5 36 1 3 5 10 7 15 3 6 -3 36 -5 67 -5 59 1 83 1 105
0 6 0 40 1 74 2 35 1 65 0 68 -3 3 -3 20 -2 38 1 l32 7 1 454 c0 250 -1 460
-3 466 -3 8 -351 11 -1236 12 -678 0 -1241 1 -1253 1 l-21 1 0 2035 c0 1120
-3 2039 -7 2043 -8 7 -1024 10 -1032 3z"/>
<path d="M6267 14604 c-1 -1 -33 -5 -72 -8 -38 -3 -81 -8 -95 -10 -14 -3 -41
-7 -60 -10 -19 -3 -46 -8 -60 -11 -14 -4 -38 -8 -53 -11 -16 -3 -74 -21 -130
-40 -56 -20 -111 -38 -122 -41 -29 -9 -199 -100 -276 -147 -66 -41 -81 -52
-189 -137 -138 -108 -297 -280 -391 -424 -33 -49 -63 -95 -68 -100 -4 -6 -10
-15 -12 -20 -2 -6 -24 -48 -49 -95 -24 -47 -44 -87 -45 -90 0 -3 -11 -27 -23
-53 -43 -97 -112 -332 -128 -437 -3 -19 -7 -46 -10 -60 -26 -139 -26 -505 0
-670 8 -47 17 -95 21 -110 2 -8 6 -26 9 -40 9 -48 57 -202 71 -231 9 -16 16
-32 17 -36 4 -31 86 -196 130 -265 36 -56 116 -168 158 -222 87 -111 427 -406
467 -406 7 0 13 -4 13 -10 0 -5 7 -10 15 -10 8 0 15 -4 15 -10 0 -5 4 -10 10
-10 5 0 31 -13 57 -28 145 -85 483 -205 608 -216 11 -1 29 -5 40 -8 18 -6 96
-15 200 -24 61 -5 325 -5 365 1 19 2 58 7 85 10 125 16 245 44 370 86 90 31
397 176 403 191 2 4 8 8 14 8 12 0 193 119 232 153 l29 25 3 441 c2 243 1 441
-1 441 -2 0 -12 -8 -22 -18 -43 -44 -299 -212 -322 -212 -5 0 -11 -4 -13 -8
-4 -12 -190 -105 -284 -143 -71 -28 -185 -64 -239 -75 -11 -2 -42 -8 -69 -14
-88 -18 -158 -23 -326 -24 -151 0 -211 4 -280 19 -14 4 -36 8 -50 11 -109 21
-338 127 -406 189 -7 5 -37 32 -68 59 -49 42 -186 204 -186 219 0 4 -13 28
-29 55 -29 50 -89 217 -93 262 l-3 25 1365 0 c751 0 1368 3 1371 8 6 8 2 545
-5 627 -25 279 -99 540 -219 770 -44 83 -153 251 -188 290 -12 14 -43 48 -68
75 -57 63 -222 205 -238 205 -6 0 -13 3 -15 8 -5 10 -66 52 -77 52 -5 0 -11 4
-13 9 -5 12 -257 137 -283 140 -3 0 -35 9 -71 21 -37 11 -80 23 -97 26 -17 2
-33 7 -37 9 -9 6 -57 14 -108 20 -24 3 -47 7 -50 9 -18 11 -415 29 -425 20z
m168 -838 c105 -7 135 -13 225 -43 173 -59 344 -175 437 -298 36 -48 113 -206
113 -233 0 -10 3 -22 8 -26 4 -4 7 -15 8 -24 0 -9 3 -30 7 -47 3 -16 9 -51 12
-77 l6 -48 -901 0 c-748 0 -902 2 -906 14 -5 13 37 141 75 231 21 46 88 164
100 175 4 3 20 23 36 45 33 45 164 175 176 175 4 0 14 6 21 14 16 15 74 47 84
45 4 0 10 3 13 8 19 28 195 80 306 90 33 3 61 6 63 8 2 2 11 1 20 -1 9 -2 53
-5 97 -8z"/>
<path d="M10167 14605 c-1 -2 -40 -5 -87 -9 -157 -11 -288 -38 -421 -86 -46
-17 -88 -31 -93 -33 -35 -9 -231 -116 -295 -161 -69 -49 -198 -168 -241 -223
-105 -134 -170 -277 -207 -457 -24 -116 -23 -367 2 -491 19 -95 88 -283 109
-297 6 -4 7 -8 3 -8 -17 0 98 -152 152 -202 89 -81 246 -176 361 -217 19 -7
44 -17 55 -22 11 -4 40 -15 65 -23 103 -34 196 -68 215 -76 11 -5 40 -16 65
-24 369 -123 525 -193 605 -271 29 -28 57 -66 63 -85 38 -117 6 -251 -79 -337
-70 -71 -192 -124 -324 -140 -102 -13 -337 -6 -425 12 -14 3 -36 8 -50 10 -14
3 -36 7 -50 10 -14 4 -34 8 -45 10 -28 6 -220 70 -280 93 -121 46 -322 143
-410 197 -22 13 -48 29 -57 35 -17 10 -18 4 -19 -72 -1 -46 -1 -86 -1 -89 2
-11 2 -205 2 -429 l0 -225 37 -30 c20 -16 38 -28 39 -25 1 3 10 -2 20 -12 29
-25 281 -148 305 -148 6 0 25 -6 42 -14 62 -28 234 -81 296 -93 14 -2 28 -6
31 -8 9 -5 136 -27 230 -39 114 -15 154 -17 280 -17 143 1 211 6 299 21 30 6
56 8 59 5 3 -2 12 0 22 5 9 5 28 11 41 13 68 13 225 64 247 80 6 5 12 7 12 4
0 -11 216 106 290 157 41 28 111 86 157 130 188 178 293 370 337 615 13 72 15
319 2 371 -3 14 -8 34 -10 45 -3 16 -24 91 -31 115 -6 17 -37 88 -47 105 -6
11 -16 29 -22 40 -58 106 -167 217 -299 306 -127 85 -246 138 -467 208 -74 24
-141 48 -147 53 -7 6 -13 7 -13 3 0 -4 -7 -2 -15 5 -8 7 -15 10 -15 7 0 -4
-39 7 -87 24 -49 18 -92 32 -98 34 -5 1 -17 5 -25 8 -14 5 -89 30 -100 32 -3
1 -17 7 -33 13 -163 68 -223 117 -272 224 -85 186 21 387 254 482 86 35 162
47 306 48 125 1 266 -17 335 -42 14 -6 34 -11 45 -13 11 -2 34 -9 50 -16 17
-7 59 -24 95 -38 86 -35 288 -136 370 -186 36 -22 67 -41 70 -42 3 -2 5 186 5
417 l0 420 -30 21 c-17 12 -36 27 -43 34 -7 7 -19 13 -27 13 -7 0 -15 4 -17 8
-6 17 -286 147 -338 158 -3 0 -14 4 -25 8 -37 14 -70 24 -120 36 -27 7 -61 16
-75 21 -14 5 -47 11 -75 15 -27 4 -63 8 -80 11 -73 10 -370 24 -378 18z"/>
<path d="M13447 14604 c-1 -1 -33 -5 -72 -8 -38 -4 -81 -9 -95 -11 -122 -20
-232 -45 -247 -57 -7 -6 -13 -8 -13 -4 0 3 -19 -1 -42 -10 -67 -25 -192 -77
-203 -84 -5 -4 -37 -22 -70 -40 -189 -102 -358 -267 -458 -448 -25 -45 -43
-82 -40 -82 3 0 1 -6 -5 -13 -6 -7 -22 -52 -36 -100 -23 -79 -30 -112 -42
-212 -12 -89 -3 -289 17 -386 14 -72 50 -192 61 -203 4 -6 8 -18 8 -28 0 -10
5 -18 10 -18 6 0 10 -7 10 -15 0 -53 162 -255 242 -303 15 -9 28 -20 28 -24 0
-4 5 -8 12 -8 6 0 19 -6 27 -14 17 -16 189 -106 201 -106 4 0 25 -8 46 -17 22
-9 42 -18 47 -19 4 -1 8 -2 10 -4 1 -1 9 -3 17 -5 8 -2 53 -18 100 -35 47 -17
119 -43 160 -56 74 -25 110 -39 140 -54 9 -4 31 -11 50 -15 19 -4 49 -13 65
-20 17 -7 67 -27 112 -44 118 -44 235 -108 281 -151 55 -53 76 -102 79 -183 5
-190 -118 -320 -353 -373 -112 -25 -355 -24 -494 2 -14 3 -38 7 -55 10 -16 3
-61 14 -100 25 -38 11 -74 21 -80 22 -25 7 -122 39 -140 47 -11 4 -40 16 -65
25 -117 44 -362 166 -428 213 -17 13 -33 22 -33 20 -1 -2 -2 -189 -3 -416 l-1
-413 39 -26 c21 -15 48 -33 60 -40 26 -15 223 -111 254 -124 12 -5 32 -13 45
-19 29 -12 264 -90 285 -95 9 -2 46 -10 82 -18 60 -14 117 -25 165 -32 11 -1
43 -6 70 -10 100 -14 386 -21 460 -11 17 3 59 8 95 11 36 4 68 9 72 12 4 2 20
6 35 8 89 12 278 77 391 133 59 30 213 121 222 131 3 4 25 22 50 41 92 71 260
258 260 290 0 5 4 10 8 10 8 0 78 133 100 190 41 111 62 227 64 360 0 69 -2
145 -5 170 -19 135 -79 296 -149 398 -39 56 -177 193 -245 242 -82 59 -324
174 -413 195 -34 9 -67 19 -75 24 -5 3 -12 6 -15 7 -3 0 -12 3 -20 6 -15 6
-161 52 -170 54 -3 0 -17 6 -32 12 -15 6 -53 19 -85 28 -32 9 -65 20 -73 24
-8 4 -46 18 -85 30 -104 34 -198 84 -248 132 -38 37 -69 79 -72 98 0 3 -7 16
-15 30 -10 17 -15 53 -15 110 1 72 5 93 28 137 36 70 77 115 148 162 113 76
229 105 414 104 140 -1 207 -11 349 -50 50 -13 108 -33 130 -44 22 -10 44 -19
49 -19 14 0 292 -138 331 -165 20 -14 39 -25 42 -25 3 0 19 -9 35 -21 l29 -20
0 420 0 420 -53 39 c-29 22 -91 59 -137 83 -236 122 -432 181 -720 215 -46 6
-328 12 -333 8z"/>
<path d="M17317 14604 c-1 -1 -40 -5 -87 -9 -47 -4 -92 -8 -100 -10 -8 -1 -35
-6 -60 -10 -25 -4 -70 -13 -100 -21 -30 -7 -64 -15 -75 -17 -11 -2 -27 -7 -35
-10 -8 -3 -51 -18 -95 -32 -141 -47 -413 -182 -445 -220 -7 -8 -17 -15 -22
-15 -34 0 -315 -246 -410 -360 -21 -25 -49 -58 -63 -75 -45 -54 -154 -218
-179 -270 -8 -16 -18 -34 -23 -38 -4 -5 -8 -12 -9 -15 0 -4 -19 -45 -41 -92
-81 -170 -135 -367 -159 -580 -12 -110 -11 -360 3 -469 16 -137 23 -172 60
-306 124 -452 470 -901 894 -1160 26 -16 240 -122 281 -140 44 -18 203 -71
239 -79 13 -3 56 -13 94 -22 96 -21 97 -22 215 -34 58 -7 166 -11 240 -11 133
2 163 3 270 17 30 4 65 8 78 8 12 1 22 3 22 6 0 3 8 6 18 7 41 3 93 14 180 39
7 2 13 3 15 3 1 -1 18 5 37 13 19 8 38 16 42 17 18 4 45 14 75 27 17 8 36 14
41 14 20 0 247 123 333 180 167 113 345 276 459 420 29 36 60 75 71 88 10 12
19 27 19 32 0 6 5 10 10 10 6 0 10 7 10 15 0 8 3 15 8 15 4 0 13 13 20 28 6
16 20 37 30 48 23 25 149 278 156 314 1 3 4 10 7 15 13 21 61 185 73 245 3 14
9 48 14 75 27 134 37 452 20 585 -4 30 -10 75 -13 100 -5 35 -51 226 -69 285
-7 24 -27 71 -36 87 -6 10 -10 23 -10 29 0 16 -92 203 -102 207 -4 2 -8 8 -8
13 0 10 -69 122 -90 146 -5 7 -10 15 -10 18 0 6 -107 146 -145 190 -178 203
-398 371 -663 503 -56 28 -106 52 -110 53 -4 1 -18 6 -32 11 -232 89 -449 128
-723 132 -65 1 -119 1 -120 0z m218 -928 c207 -19 393 -98 558 -235 186 -156
308 -388 344 -656 12 -92 4 -409 -11 -434 -3 -4 -8 -23 -11 -42 -31 -182 -160
-405 -312 -536 -67 -58 -195 -143 -215 -143 -8 0 -18 -4 -23 -9 -20 -17 -168
-61 -253 -75 -109 -18 -278 -17 -374 1 -40 7 -82 15 -93 17 -38 7 -190 69
-240 99 -279 163 -448 436 -481 778 -8 77 -8 253 0 329 7 62 14 115 16 115 2
0 6 17 13 55 3 14 6 26 6 28 1 1 1 3 0 5 0 1 7 18 15 38 8 20 12 39 9 43 -4 3
-1 6 5 6 7 0 12 7 12 15 0 19 49 115 88 173 50 74 151 179 221 231 68 50 221
137 221 125 0 -4 6 -2 13 4 26 21 189 61 276 67 23 2 44 5 46 7 4 4 103 0 170
-6z"/>
<path d="M22367 14604 c-1 -1 -30 -4 -64 -8 -76 -8 -263 -54 -282 -70 -8 -6
-15 -9 -15 -7 -1 6 -179 -78 -186 -87 -3 -4 -32 -25 -65 -47 -33 -22 -64 -45
-70 -51 -5 -6 -21 -17 -35 -26 -59 -37 -237 -211 -311 -305 l-27 -33 0 248 c0
136 -1 257 -1 269 l-1 22 -475 -1 -475 -1 2 -37 c1 -20 -2 -42 -6 -48 -3 -6
-2 -13 3 -16 5 -4 6 -18 2 -34 -4 -15 -5 -38 -1 -52 4 -14 3 -35 -1 -47 -5
-12 -4 -25 1 -28 5 -3 5 -18 1 -33 -4 -15 -5 -38 -1 -52 4 -14 3 -35 -1 -47
-5 -12 -4 -25 1 -28 5 -3 5 -18 1 -33 -4 -15 -5 -38 -1 -52 4 -14 3 -35 -1
-47 -5 -12 -4 -25 1 -28 5 -3 5 -18 1 -33 -4 -15 -5 -38 -1 -52 4 -14 3 -35
-1 -47 -5 -12 -4 -25 1 -28 5 -3 5 -18 1 -33 -4 -15 -5 -38 -1 -52 4 -14 3
-35 -1 -47 -5 -12 -4 -25 1 -28 5 -3 5 -18 1 -33 -4 -15 -5 -38 -1 -52 4 -14
3 -35 -1 -47 -5 -12 -4 -25 1 -28 5 -3 5 -18 1 -33 -4 -15 -5 -38 -1 -52 4
-14 3 -35 -1 -47 -5 -12 -4 -25 1 -28 5 -3 5 -18 1 -33 -4 -15 -5 -38 -1 -52
4 -14 3 -35 -1 -47 -5 -12 -4 -25 1 -28 5 -3 5 -18 1 -33 -4 -15 -5 -38 -1
-52 4 -14 3 -35 -1 -47 -5 -12 -4 -25 1 -28 5 -3 5 -18 1 -33 -4 -15 -5 -38
-1 -52 4 -14 3 -35 -1 -47 -5 -12 -4 -25 1 -28 5 -3 5 -18 1 -33 -4 -15 -5
-38 -1 -52 4 -14 3 -35 -1 -47 -5 -12 -4 -25 1 -28 5 -3 5 -18 1 -33 -4 -15
-5 -38 -1 -52 4 -14 3 -35 -1 -47 -5 -12 -4 -25 1 -28 5 -3 5 -18 1 -33 -4
-15 -5 -38 -1 -52 4 -14 3 -35 -1 -47 -5 -12 -4 -25 1 -28 5 -3 5 -18 1 -33
-4 -15 -5 -38 -1 -52 4 -14 3 -35 -1 -47 -5 -12 -4 -25 1 -28 5 -3 5 -18 1
-33 -4 -15 -5 -38 -1 -52 4 -14 3 -35 -1 -47 -5 -12 -4 -25 1 -28 5 -3 5 -18
1 -33 -4 -15 -5 -38 -1 -52 4 -14 3 -35 -1 -47 -5 -12 -4 -25 1 -28 5 -3 5
-18 1 -33 -4 -15 -5 -38 -1 -52 4 -14 3 -35 -1 -47 -5 -12 -4 -25 1 -28 5 -3
5 -18 1 -33 -4 -15 -5 -38 -1 -52 4 -14 3 -35 -1 -47 -5 -12 -4 -25 1 -28 5
-3 5 -18 1 -33 -4 -15 -5 -38 -1 -52 4 -14 3 -35 -1 -47 -5 -12 -4 -25 1 -28
5 -3 5 -18 1 -33 -4 -15 -5 -38 -1 -52 4 -14 3 -35 -1 -47 -5 -12 -4 -25 1
-28 5 -3 5 -18 1 -33 -4 -15 -5 -38 -1 -52 4 -14 3 -35 -1 -47 -5 -12 -4 -25
1 -28 5 -3 5 -18 1 -33 -4 -15 -5 -38 -1 -52 4 -14 3 -35 -1 -47 -5 -12 -4
-25 1 -28 5 -3 7 -12 4 -19 -3 -8 -6 -43 -7 -78 -1 -46 2 -65 11 -66 38 -4
104 -3 109 1 2 3 18 1 34 -3 17 -5 31 -5 35 1 3 5 10 7 15 3 6 -3 36 -5 67 -5
56 1 79 1 105 1 6 -1 40 0 73 1 34 1 66 -1 72 -5 6 -3 13 -2 17 3 3 6 11 8 18
5 23 -8 127 -9 127 -1 0 5 4 5 10 2 5 -3 36 -6 67 -5 32 0 69 0 83 -1 14 0 32
0 40 0 8 1 27 1 43 1 19 0 27 5 28 17 0 10 1 553 1 1206 1 872 4 1190 12 1195
6 4 20 21 30 37 39 60 219 247 291 300 22 17 42 32 45 35 6 6 72 49 110 72 91
54 265 96 382 92 149 -5 239 -26 353 -82 51 -26 167 -131 196 -180 13 -20 26
-39 29 -42 14 -12 64 -155 75 -215 2 -11 6 -33 10 -50 8 -35 14 -579 18 -1624
3 -741 3 -754 22 -758 19 -3 33 -4 65 -3 22 1 158 0 183 0 6 -1 37 0 68 1 30
1 60 0 65 -4 6 -3 16 -2 23 3 8 4 27 4 42 0 16 -5 29 -5 29 0 0 5 13 5 30 0
18 -5 32 -5 36 1 3 5 10 7 15 3 6 -3 36 -5 67 -5 56 1 79 1 105 1 25 -1 157 0
188 1 15 0 16 105 14 1287 -1 708 -5 1296 -7 1307 -5 17 -13 67 -22 140 -2 11
-6 34 -9 50 -4 17 -9 44 -12 62 -3 18 -10 45 -16 60 -6 15 -9 28 -8 28 7 0
-49 151 -82 224 -109 236 -329 463 -556 575 -131 64 -171 79 -298 112 -43 11
-130 26 -180 30 -58 6 -254 12 -258 8z"/>
<path d="M25328 11785 c-2 -1 -23 -5 -48 -8 -95 -11 -176 -42 -252 -96 -173
-123 -257 -277 -263 -484 -7 -261 141 -479 392 -578 127 -50 351 -39 468 24
48 26 157 105 167 121 3 7 20 27 37 46 64 73 117 196 128 297 24 229 -56 411
-252 567 -61 48 -150 87 -235 101 -42 8 -137 14 -142 10z"/>
</g>
</svg>
